<svg width="100" height="98" viewBox="0 0 100 98" fill="none" xmlns="http://www.w3.org/2000/svg">
<g clip-path="url(#clip0_23_334)">
<path d="M83.3984 0H16.6016C7.43277 0 0 7.45894 0 16.66V81.1832C0 90.3843 7.43277 97.8432 16.6016 97.8432H83.3984C92.5672 97.8432 100 90.3843 100 81.1832V16.66C100 7.45894 92.5672 0 83.3984 0Z" fill="#470137"/>
<path d="M52.5695 25.7309L40.0918 46.3983L53.4414 68.3444C53.5273 68.4981 53.5512 68.6784 53.5086 68.8493C53.4879 68.9222 53.4434 68.9403 53.375 68.943L53.2992 68.9418L53.207 68.9395C53.157 68.9395 53.1012 68.9418 53.0391 68.952H43.4141L43.225 68.9489C42.7062 68.9352 42.3324 68.8607 42.1047 68.4789C41.2141 66.7378 40.3196 64.9988 39.4211 63.2618C38.6174 61.7125 37.7918 60.1748 36.9445 58.6491L36.5703 57.9772C35.5569 56.1698 34.5618 54.3521 33.5852 52.5245H33.518C32.616 54.333 31.6879 56.1283 30.734 57.9098C29.7719 59.7051 28.8215 61.4895 27.8828 63.2618C26.9436 65.0354 25.9821 66.7971 24.9984 68.5463C24.8402 68.903 24.5773 68.9775 24.2113 68.9897L24.059 68.992H14.8687L14.8289 68.9932L14.6977 69.0049C14.6246 69.0093 14.5809 68.9936 14.5668 68.883C14.5416 68.7189 14.5775 68.5512 14.6676 68.4118L27.6145 47.0714L15.0027 25.6642C14.8688 25.4855 14.8465 25.3397 14.9355 25.2268C14.9851 25.1693 15.0472 25.1241 15.1171 25.0948C15.187 25.0656 15.2627 25.053 15.3383 25.0582H24.7969C25.0031 25.0469 25.2094 25.0814 25.4008 25.1593C25.5609 25.2507 25.6988 25.3773 25.8031 25.5298C26.6082 27.3251 27.5027 29.1205 28.4867 30.9151C29.4631 32.6983 30.4582 34.4712 31.4719 36.2333C32.47 37.9682 33.3988 39.7424 34.2559 41.5516H34.323C35.2014 39.7428 36.1071 37.9475 37.0398 36.1663C37.9559 34.416 38.8953 32.654 39.857 30.8814C40.8065 29.1315 41.7346 27.37 42.641 25.5972C42.6926 25.431 42.7848 25.2805 42.9094 25.1593C43.0751 25.0752 43.2612 25.0401 43.4461 25.0582H52.234C52.3148 25.038 52.3999 25.0447 52.4766 25.0772C52.5533 25.1097 52.6174 25.1664 52.6593 25.2386C52.7011 25.3108 52.7185 25.3948 52.7087 25.4777C52.6989 25.5607 52.6626 25.6383 52.6051 25.6987L52.5699 25.7317L52.5695 25.7309ZM72.2844 69.8203L71.8219 69.8254C68.7341 69.8726 65.6747 69.2288 62.866 67.9407C60.2495 66.7254 58.0624 64.7417 56.5938 62.252C55.1129 59.7839 54.3527 56.7083 54.3145 53.0262L54.3129 52.7264C54.2878 49.6366 55.0746 46.5949 56.5941 43.9075C58.1149 41.2477 60.3319 39.0562 63.0051 37.5705L63.2352 37.445C66.1414 35.8292 69.6523 35.0213 73.7672 35.0213L73.9469 35.0232L74.1523 35.0299L74.3828 35.0401L74.6391 35.055L75.0695 35.0856L75.557 35.1248L75.9137 35.1561V21.894C75.9137 21.5804 76.048 21.4228 76.316 21.4228H84.7687C84.8234 21.4149 84.8791 21.42 84.9315 21.4375C84.9839 21.455 85.0315 21.4845 85.0706 21.5237C85.1096 21.5629 85.139 21.6106 85.1565 21.6632C85.1739 21.7158 85.1789 21.7717 85.1711 21.8266V61.6126C85.1711 62.2806 85.1969 63.0003 85.2484 63.7702L85.3734 65.5165L85.4398 66.5267C85.4481 66.6666 85.4141 66.8058 85.3422 66.9259C85.2704 67.0461 85.164 67.1417 85.0371 67.2002C82.8565 68.1127 80.5852 68.7896 78.2617 69.2194C76.2892 69.5847 74.2899 69.7857 72.2844 69.8203ZM75.9137 61.4778V43.0996C75.5511 43.0011 75.1809 42.9336 74.807 42.8977C74.35 42.8516 73.891 42.8291 73.4316 42.8303C71.8038 42.8142 70.1951 43.1832 68.7359 43.9075C67.3147 44.6165 66.1011 45.6836 65.2141 47.0043C64.3285 48.3042 63.8703 50.0016 63.8402 52.0964L63.8387 52.3226C63.806 53.79 64.0448 55.2507 64.543 56.6307C64.9485 57.7428 65.5895 58.7535 66.4219 59.593C67.2184 60.3653 68.1828 60.9414 69.2391 61.2759C70.3548 61.6385 71.521 61.8204 72.6937 61.8149C73.3195 61.8149 73.9008 61.7921 74.4379 61.7471C74.8663 61.7147 75.2909 61.6439 75.7066 61.5354L75.9137 61.4778Z" fill="#FF61F6"/>
</g>
<defs>
<clipPath id="clip0_23_334">
<rect width="100" height="98" fill="white"/>
</clipPath>
</defs>
</svg>
