<svg width="88" height="53" viewBox="0 0 88 53" fill="none" xmlns="http://www.w3.org/2000/svg">
<g clip-path="url(#clip0_21_271)">
<path d="M24.8848 19.204C24.8848 20.2907 25.0016 21.1716 25.2055 21.8176C25.4643 22.5444 25.7759 23.2511 26.1377 23.9317C26.2835 24.1666 26.3416 24.4015 26.3416 24.6072C26.3416 24.9006 26.1669 25.1944 25.7881 25.4881L23.9525 26.7213C23.6902 26.8976 23.4279 26.9856 23.1945 26.9856C22.9034 26.9856 22.6119 26.8388 22.3204 26.5744C21.9278 26.1493 21.5766 25.6871 21.2716 25.1944C20.9801 24.6955 20.6886 24.1371 20.3682 23.462C18.0954 26.1633 15.2395 27.5142 11.8013 27.5142C9.35379 27.5142 7.40129 26.8093 5.97335 25.4001C4.54576 23.9903 3.81735 22.111 3.81735 19.762C3.81735 17.2662 4.69151 15.2401 6.46904 13.7131C8.24623 12.1862 10.6068 11.4227 13.608 11.4227C14.5987 11.4227 15.6186 11.5107 16.6966 11.6575C17.775 11.8044 18.8822 12.0393 20.0479 12.3036V10.16C20.0479 7.92815 19.5814 6.3721 18.678 5.46175C17.7458 4.55139 16.1721 4.11076 13.9284 4.11076C12.9085 4.11076 11.8597 4.22854 10.7814 4.49285C9.70338 4.75681 8.65426 5.08001 7.63435 5.49119C7.16823 5.69661 6.81863 5.81404 6.61445 5.87293C6.4106 5.93182 6.26485 5.96092 6.14832 5.96092C5.74029 5.96092 5.53645 5.66716 5.53645 5.05056V3.6116C5.53645 3.14187 5.59488 2.78958 5.74029 2.58416C5.88604 2.37839 6.14832 2.17297 6.55635 1.96756C7.57626 1.43894 8.80001 0.998314 10.2276 0.64602C11.6559 0.264282 13.1711 0.0883078 14.7737 0.0883078C18.2414 0.0883078 20.7766 0.880883 22.4084 2.46673C24.0109 4.05222 24.827 6.46009 24.827 9.69031V19.204H24.8854H24.8848ZM13.0543 23.6674C14.0161 23.6674 15.0068 23.4914 16.0555 23.1388C17.1047 22.7865 18.0373 22.1405 18.8238 21.2596C19.2902 20.7018 19.6398 20.0852 19.8144 19.3803C19.9894 18.6757 20.1059 17.8239 20.1059 16.8256V15.5924C19.2223 15.3756 18.3272 15.209 17.425 15.0932C16.5166 14.9769 15.6018 14.918 14.686 14.9169C12.7335 14.9169 11.3059 15.2986 10.3445 16.0915C9.38267 16.8845 8.91654 18.0002 8.91654 19.4683C8.91654 20.8484 9.26613 21.8762 9.99454 22.5811C10.6941 23.3151 11.714 23.6674 13.0543 23.6674ZM36.453 26.8388C35.9284 26.8388 35.5788 26.7508 35.3458 26.545C35.1127 26.369 34.9085 25.9578 34.7339 25.4001L27.8864 2.70159C27.7111 2.11409 27.6238 1.73235 27.6238 1.52693C27.6238 1.0572 27.8568 0.79255 28.3233 0.79255H31.1788C31.7323 0.79255 32.1114 0.880883 32.3153 1.0863C32.5483 1.26262 32.7233 1.6738 32.8979 2.23152L37.7933 21.6707L42.339 2.23152C42.4848 1.64436 42.6597 1.26262 42.8924 1.0863C43.1259 0.910327 43.5339 0.792896 44.0584 0.792896H46.3894C46.9429 0.792896 47.322 0.880883 47.5547 1.0863C47.7881 1.26262 47.992 1.6738 48.1085 2.23152L52.7127 21.9056L57.7534 2.23152C57.9281 1.64436 58.1323 1.26262 58.3361 1.0863C58.5692 0.910327 58.948 0.792896 59.4725 0.792896H62.1823C62.6488 0.792896 62.9111 1.02776 62.9111 1.52693C62.9111 1.6738 62.8819 1.82068 62.8526 1.99665C62.8234 2.17297 62.7653 2.40784 62.6488 2.73103L55.626 25.4292C55.4514 26.0167 55.2475 26.3985 55.0141 26.5744C54.781 26.7508 54.4022 26.8682 53.9072 26.8682H51.4013C50.8475 26.8682 50.4687 26.7802 50.2353 26.5744C50.0022 26.369 49.7984 25.9873 49.6819 25.4001L45.165 6.46009L40.6777 25.3703C40.5323 25.9578 40.3573 26.3396 40.1242 26.545C39.8912 26.7508 39.4831 26.8388 38.9589 26.8388H36.4526H36.453ZM73.8966 27.6317C72.3814 27.6317 70.8661 27.4554 69.4093 27.1031C67.9522 26.7508 66.8161 26.3687 66.0584 25.9288C65.592 25.6641 65.2713 25.3707 65.1551 25.1064C65.0416 24.8472 64.982 24.5673 64.9801 24.284V22.7865C64.9801 22.1699 65.2132 21.8762 65.6504 21.8762C65.8289 21.8768 66.006 21.9067 66.175 21.9645C66.3496 22.0234 66.6119 22.1405 66.9034 22.2579C67.9326 22.7141 69.007 23.0586 70.1085 23.2857C71.2499 23.5191 72.4116 23.6371 73.5763 23.638C75.4119 23.638 76.8398 23.3151 77.8305 22.6691C78.8212 22.023 79.3458 21.0836 79.3458 19.8795C79.3458 19.0575 79.0835 18.382 78.5589 17.8239C78.0344 17.2662 77.0437 16.767 75.6161 16.297L71.3907 14.9758C69.2636 14.3003 67.6902 13.3019 66.7284 11.9804C65.7669 10.6883 65.2716 9.24969 65.2716 7.72273C65.2716 6.48953 65.5339 5.40286 66.0584 4.46306C66.5827 3.52361 67.2822 2.70159 68.1564 2.05554C69.0305 1.38005 70.0212 0.880883 71.1869 0.528589C72.3522 0.176295 73.5759 0.0294189 74.8581 0.0294189C75.4992 0.0294189 76.1695 0.0588634 76.8106 0.14685C77.4809 0.234837 78.0928 0.352269 78.7047 0.4697C79.2873 0.616576 79.8411 0.763452 80.3657 0.939772C80.8902 1.11575 81.2979 1.29207 81.5894 1.46804C81.9974 1.70325 82.2886 1.93811 82.4636 2.20242C82.6385 2.43728 82.7259 2.76013 82.7259 3.17131V4.55139C82.7259 5.16799 82.4928 5.49119 82.0555 5.49119C81.8225 5.49119 81.4437 5.37341 80.9487 5.13855C79.2873 4.37507 77.4225 3.99333 75.3538 3.99333C73.6928 3.99333 72.3814 4.25764 71.478 4.8157C70.575 5.37341 70.1085 6.22522 70.1085 7.42898C70.1085 8.25135 70.4 8.95594 70.9827 9.51399C71.5657 10.0717 72.6437 10.6298 74.1881 11.1289L78.3259 12.4505C80.4238 13.126 81.939 14.0654 82.8424 15.2692C83.7458 16.4733 84.183 17.8534 84.183 19.3803C84.183 20.643 83.9204 21.7882 83.425 22.7865C82.9008 23.7848 82.2013 24.6658 81.2979 25.3707C80.3945 26.1047 79.3165 26.6333 78.0636 27.0151C76.7522 27.4263 75.3827 27.6317 73.8966 27.6317Z" fill="#252F3E"/>
<path d="M79.4038 41.9026C69.8173 49.0382 55.8886 52.8261 43.9127 52.8261C27.1284 52.8261 12.0055 46.5714 0.583015 36.1765C-0.32036 35.3545 0.495359 34.2387 1.57336 34.8844C13.9284 42.1083 29.1682 46.4834 44.9326 46.4834C55.5682 46.4834 67.253 44.2519 78.0055 39.671C79.608 38.9366 80.9775 40.7282 79.4038 41.9026ZM83.3962 37.3217C82.1724 35.7362 75.2953 36.5582 72.1775 36.94C71.2449 37.0577 71.0992 36.2354 71.9445 35.6188C77.4225 31.7425 86.4267 32.8586 87.4754 34.1504C88.5246 35.4719 87.1839 44.5453 82.0555 48.8913C81.269 49.5668 80.5114 49.2145 80.861 48.3336C82.0263 45.4262 84.6199 38.8781 83.3962 37.3217Z" fill="#FF9900"/>
</g>
<defs>
<clipPath id="clip0_21_271">
<rect width="88" height="53" fill="white"/>
</clipPath>
</defs>
</svg>
