<svg width="68" height="68" viewBox="0 0 68 68" fill="none" xmlns="http://www.w3.org/2000/svg">
<path d="M51.85 16.1784C51.5879 15.9157 51.2765 15.7073 50.9338 15.5651C50.591 15.423 50.2236 15.3498 49.8525 15.3498C49.4814 15.3498 49.114 15.423 48.7712 15.5651C48.4285 15.7073 48.1171 15.9157 47.855 16.1784L34 30.005L20.145 16.15C19.8827 15.8877 19.5713 15.6796 19.2285 15.5377C18.8858 15.3957 18.5185 15.3226 18.1475 15.3226C17.7765 15.3226 17.4092 15.3957 17.0665 15.5377C16.7237 15.6796 16.4123 15.8877 16.15 16.15C15.8877 16.4123 15.6796 16.7238 15.5376 17.0665C15.3957 17.4092 15.3226 17.7766 15.3226 18.1475C15.3226 18.5185 15.3957 18.8858 15.5376 19.2286C15.6796 19.5713 15.8877 19.8827 16.15 20.145L30.005 34L16.15 47.855C15.8877 48.1173 15.6796 48.4288 15.5376 48.7715C15.3957 49.1142 15.3226 49.4816 15.3226 49.8525C15.3226 50.2235 15.3957 50.5908 15.5376 50.9336C15.6796 51.2763 15.8877 51.5877 16.15 51.85C16.4123 52.1123 16.7237 52.3204 17.0665 52.4624C17.4092 52.6043 17.7765 52.6774 18.1475 52.6774C18.5185 52.6774 18.8858 52.6043 19.2285 52.4624C19.5713 52.3204 19.8827 52.1123 20.145 51.85L34 37.995L47.855 51.85C48.1173 52.1123 48.4287 52.3204 48.7715 52.4624C49.1142 52.6043 49.4815 52.6774 49.8525 52.6774C50.2235 52.6774 50.5908 52.6043 50.9335 52.4624C51.2763 52.3204 51.5877 52.1123 51.85 51.85C52.1123 51.5877 52.3204 51.2763 52.4624 50.9336C52.6043 50.5908 52.6774 50.2235 52.6774 49.8525C52.6774 49.4816 52.6043 49.1142 52.4624 48.7715C52.3204 48.4288 52.1123 48.1173 51.85 47.855L37.995 34L51.85 20.145C52.9267 19.0684 52.9267 17.255 51.85 16.1784Z" fill="#15556A"/>
</svg>
