<svg width="90" height="65" viewBox="0 0 90 65" fill="none" xmlns="http://www.w3.org/2000/svg">
<g clip-path="url(#clip0_21_324)">
<path d="M88.1425 24.7692C86.1158 23.3638 81.4713 22.8368 77.8403 23.5395C77.4185 20.026 75.4761 16.952 72.0983 14.229L70.1562 12.8236L68.8048 14.8439C67.1163 17.479 66.2718 21.1682 66.5249 24.6817C66.6093 25.9111 67.0315 28.1071 68.2982 30.0395C67.1163 30.7422 64.6673 31.6206 61.4586 31.6206H0.406234L0.237484 32.3233C-0.353844 35.8364 -0.353845 46.8158 6.57053 55.2479C11.806 61.6597 19.5748 64.9097 29.7923 64.9097C51.9161 64.9097 68.2982 54.2813 75.9827 35.0459C79.0226 35.1337 85.5248 35.0459 88.8182 28.4581C88.9026 28.2824 89.0714 27.931 89.6623 26.6138L90.0002 25.9111L88.1425 24.7692ZM49.214 0H39.9257V8.78343H49.214V0ZM49.214 10.5402H39.9257V19.3236H49.214V10.5398V10.5402ZM38.2365 10.5402H28.9482V19.3236H38.2365V10.5398V10.5402ZM27.2589 10.5402H17.9703V19.3236H27.2589V10.5398V10.5402ZM16.2814 21.0804H6.99276V29.8638H16.281V21.08L16.2814 21.0804ZM27.2589 21.0804H17.9703V29.8638H27.2589V21.0804ZM38.2365 21.0804H28.9482V29.8638H38.2365V21.0804ZM49.2144 21.0804H39.9254V29.8638H49.2144V21.0804ZM60.1919 21.0804H50.9029V29.8638H60.1919V21.0804Z" fill="#2396ED"/>
</g>
<defs>
<clipPath id="clip0_21_324">
<rect width="90" height="65" fill="white"/>
</clipPath>
</defs>
</svg>
