<svg width="86" height="86" viewBox="0 0 86 86" fill="none" xmlns="http://www.w3.org/2000/svg">
<g clip-path="url(#clip0_23_326)">
<path d="M86 66.607C84.7483 67.0804 83.3667 67.0793 82.1158 66.6041C80.8648 66.1288 79.8311 65.2121 79.2096 64.027L66.8471 46.9309L65.0554 44.5408L50.7113 64.0485C50.1272 65.1839 49.1495 66.0676 47.9611 66.5346C46.7727 67.0015 45.4549 67.0196 44.2542 66.5855L62.737 41.7888L45.5442 19.3894C46.7804 18.9439 48.1324 18.938 49.3725 19.3727C50.6125 19.8074 51.665 20.6561 52.3525 21.7759L65.1665 39.0834L78.0522 21.8476C78.6408 20.7324 79.6187 19.8724 80.8 19.4311C81.9813 18.9897 83.2835 18.9979 84.4592 19.4539L77.787 28.3083L68.7498 40.0724C68.4989 40.2963 68.298 40.5707 68.1605 40.8776C68.023 41.1845 67.952 41.517 67.952 41.8533C67.952 42.1896 68.023 42.5221 68.1605 42.8291C68.298 43.136 68.4989 43.4104 68.7498 43.6342L85.9642 66.6106L86 66.607ZM0.00716674 41.4807L1.51217 34.0452C5.64733 19.3428 22.5033 13.2261 34.099 22.3277C40.8894 27.6633 42.5843 35.217 42.2511 43.731H3.999C3.37908 58.9351 14.3512 68.1156 28.38 63.425C30.6542 62.6064 32.6898 61.2364 34.3045 59.4379C35.9192 57.6393 37.0626 55.4683 37.6322 53.1193C38.3739 50.7328 39.5958 50.3243 41.839 51.0123C41.4652 53.9234 40.4362 56.7117 38.8293 59.1677C37.2224 61.6236 35.0795 63.6833 32.5618 65.1916C28.403 67.4664 23.6315 68.368 18.9294 67.7675C14.2273 67.1671 9.83553 65.0952 6.38192 61.8483C2.96711 58.0048 0.903273 53.1498 0.50525 48.0238C0.50525 47.1817 0.218583 46.3934 0.0250834 45.6373C0.00763985 44.253 -0.000721445 42.8686 7.13204e-08 41.4842L0.00716674 41.4807ZM4.04558 40.4558H38.6391C38.4241 29.4335 31.4688 21.6146 22.1916 21.543C11.8644 21.3996 4.47558 29.0465 4.0205 40.4056L4.04558 40.4558Z" fill="black"/>
</g>
<defs>
<clipPath id="clip0_23_326">
<rect width="86" height="86" fill="white"/>
</clipPath>
</defs>
</svg>
