<svg width="54" height="82" viewBox="0 0 54 82" fill="none" xmlns="http://www.w3.org/2000/svg">
<g clip-path="url(#clip0_23_328)">
<path d="M13.5 82C20.952 82 27 75.8774 27 68.3334V54.6667H13.5C6.048 54.6667 0 60.7894 0 68.3334C0 75.8774 6.048 82 13.5 82Z" fill="#0ACF83"/>
<path d="M0 41C0 33.456 6.048 27.3333 13.5 27.3333H27V54.6666H13.5C6.048 54.6666 0 48.544 0 41Z" fill="#A259FF"/>
<path d="M0 13.6667C0 6.12267 6.048 0 13.5 0H27V27.3333H13.5C6.048 27.3333 0 21.2107 0 13.6667Z" fill="#F24E1E"/>
<path d="M27 0H40.5C47.952 0 54 6.12267 54 13.6667C54 21.2107 47.952 27.3333 40.5 27.3333H27V0Z" fill="#FF7262"/>
<path d="M54 41C54 48.544 47.952 54.6666 40.5 54.6666C33.048 54.6666 27 48.544 27 41C27 33.456 33.048 27.3333 40.5 27.3333C47.952 27.3333 54 33.456 54 41Z" fill="#1ABCFE"/>
</g>
<defs>
<clipPath id="clip0_23_328">
<rect width="54" height="82" fill="white"/>
</clipPath>
</defs>
</svg>
