<svg width="94" height="94" viewBox="0 0 94 94" fill="none" xmlns="http://www.w3.org/2000/svg">
<path d="M17.0375 72.2625L17.5369 71.5663L41.0956 26.8752L41.1456 26.4022L30.7615 6.89723C30.5714 6.54055 30.274 6.25267 29.9113 6.07433C29.5485 5.89598 29.139 5.8362 28.7404 5.90344C28.3419 5.97068 27.9745 6.16153 27.6904 6.44899C27.4063 6.73646 27.2198 7.10598 27.1572 7.50529L17.0375 72.2625Z" fill="#FFC24A"/>
<path d="M17.3313 71.7337L17.7073 70.9994L41.0222 26.7724L30.6646 7.19099C30.4938 6.85045 30.2172 6.57443 29.8764 6.40427C29.5355 6.23411 29.1487 6.17897 28.7738 6.24712C28.399 6.31527 28.0564 6.50304 27.7972 6.78229C27.5381 7.06154 27.3764 7.41725 27.3364 7.79611L17.3313 71.7337Z" fill="#FFA712"/>
<path d="M48.7155 41.1544L56.447 33.2231L48.7126 18.4739C48.5423 18.1565 48.2892 17.8912 47.9801 17.7062C47.671 17.5213 47.3176 17.4236 46.9574 17.4236C46.5972 17.4236 46.2438 17.5213 45.9347 17.7062C45.6256 17.8912 45.3725 18.1565 45.2022 18.4739L41.0692 26.3523V27.025L48.7155 41.1544Z" fill="#F4BD62"/>
<path d="M48.5774 40.8312L56.0945 33.135L48.5774 18.8C48.4544 18.4897 48.2442 18.2216 47.9723 18.0281C47.7003 17.8345 47.3782 17.7238 47.0447 17.7092C46.7112 17.6946 46.3807 17.7768 46.0928 17.9458C45.805 18.1149 45.5722 18.3636 45.4226 18.6619L41.2689 26.6783L41.1456 27.0867L48.5774 40.8312Z" fill="#FFA50E"/>
<path d="M17.0434 72.2654L17.2696 72.0363L18.0891 71.7044L48.2279 41.6772L48.6098 40.6374L41.0927 26.3082L17.0434 72.2654Z" fill="#F6820C"/>
<path d="M49.679 87.4083L76.9625 72.1949L69.1664 24.2226C69.1105 23.8845 68.9625 23.5682 68.7387 23.3086C68.5148 23.049 68.2238 22.8562 67.8975 22.7511C67.5712 22.6461 67.2223 22.633 66.8891 22.7133C66.5559 22.7936 66.2512 22.9642 66.0086 23.2063L17.0375 72.2625L44.1594 87.4053C45.0026 87.8758 45.9522 88.1228 46.9178 88.1228C47.8833 88.1228 48.8329 87.8758 49.6761 87.4053" fill="#FDE068"/>
<path d="M76.7128 72.0686L68.9813 24.4576C68.9677 24.1342 68.8584 23.822 68.6672 23.5607C68.4761 23.2994 68.2118 23.1007 67.9077 22.9896C67.6035 22.8786 67.2733 22.8603 66.9588 22.9371C66.6443 23.0138 66.3596 23.1821 66.1408 23.4207L17.3313 72.1715L44.1536 87.1527C44.9901 87.6194 45.932 87.8643 46.8898 87.8643C47.8477 87.8643 48.7896 87.6194 49.6261 87.1527L76.7128 72.0686Z" fill="#FCCA3F"/>
<path d="M49.679 86.95C48.8358 87.4205 47.8863 87.6675 46.9207 87.6675C45.9551 87.6675 45.0056 87.4205 44.1624 86.95L17.2608 72.0334L17.0375 72.2625L44.1594 87.4053C45.0026 87.8758 45.9522 88.1228 46.9178 88.1228C47.8833 88.1228 48.8329 87.8758 49.6761 87.4053L76.9625 72.1949L76.8949 71.7837L49.679 86.95Z" fill="#EEAB37"/>
</svg>
