<svg width="66" height="66" viewBox="0 0 66 66" fill="none" xmlns="http://www.w3.org/2000/svg">
<path fill-rule="evenodd" clip-rule="evenodd" d="M9.526 56.4712C13.5575 60.5 20.0365 60.5 33 60.5C45.9635 60.5 52.4452 60.5 56.4712 56.4712C60.5 52.448 60.5 45.9635 60.5 33C60.5 20.0365 60.5 13.5548 56.4712 9.526C52.448 5.5 45.9635 5.5 33 5.5C20.0365 5.5 13.5548 5.5 9.526 9.526C5.5 13.5575 5.5 20.0365 5.5 33C5.5 45.9635 5.5 52.4452 9.526 56.4712ZM51.5625 44C51.5625 44.547 51.3452 45.0716 50.9584 45.4584C50.5716 45.8452 50.047 46.0625 49.5 46.0625H16.5C15.953 46.0625 15.4284 45.8452 15.0416 45.4584C14.6548 45.0716 14.4375 44.547 14.4375 44C14.4375 43.453 14.6548 42.9284 15.0416 42.5416C15.4284 42.1548 15.953 41.9375 16.5 41.9375H49.5C50.047 41.9375 50.5716 42.1548 50.9584 42.5416C51.3452 42.9284 51.5625 43.453 51.5625 44ZM49.5 35.0625C50.047 35.0625 50.5716 34.8452 50.9584 34.4584C51.3452 34.0716 51.5625 33.547 51.5625 33C51.5625 32.453 51.3452 31.9284 50.9584 31.5416C50.5716 31.1548 50.047 30.9375 49.5 30.9375H16.5C15.953 30.9375 15.4284 31.1548 15.0416 31.5416C14.6548 31.9284 14.4375 32.453 14.4375 33C14.4375 33.547 14.6548 34.0716 15.0416 34.4584C15.4284 34.8452 15.953 35.0625 16.5 35.0625H49.5ZM51.5625 22C51.5625 22.547 51.3452 23.0716 50.9584 23.4584C50.5716 23.8452 50.047 24.0625 49.5 24.0625H16.5C15.953 24.0625 15.4284 23.8452 15.0416 23.4584C14.6548 23.0716 14.4375 22.547 14.4375 22C14.4375 21.453 14.6548 20.9284 15.0416 20.5416C15.4284 20.1548 15.953 19.9375 16.5 19.9375H49.5C50.047 19.9375 50.5716 20.1548 50.9584 20.5416C51.3452 20.9284 51.5625 21.453 51.5625 22Z" fill="#15556A"/>
</svg>
