<svg width="86" height="86" viewBox="0 0 86 86" fill="none" xmlns="http://www.w3.org/2000/svg">
<g clip-path="url(#clip0_21_263)">
<path d="M20.1562 0H65.8438C76.9757 0 86 9.02426 86 20.1562V65.8438C86 76.9757 76.9757 86 65.8438 86H20.1562C9.02426 86 0 76.9757 0 65.8438V20.1562C0 9.02426 9.02426 0 20.1562 0Z" fill="#023430"/>
<path d="M28.4966 36.1439C32.0363 20.5291 39.4135 16.3722 41.2954 13.4338C42.0715 12.1393 42.759 10.7937 43.3531 9.40625C43.4525 10.7937 43.6352 11.6671 44.8144 12.7193C47.1817 14.83 57.2363 23.0235 58.0826 40.7653C58.871 57.3076 45.9216 67.5076 44.211 68.5622C42.8955 69.2095 41.2934 68.5759 40.5117 67.9817C34.2696 63.6978 25.7409 52.2766 28.4898 36.1439" fill="#10AA50"/>
<path d="M42.8169 59.7535C43.1428 63.8479 43.3762 66.2271 44.204 68.5669C44.204 68.5669 43.6608 72.4647 43.2791 76.5938H41.929C41.607 73.6861 41.1152 70.7997 40.4563 67.9494C42.2041 67.0894 42.7497 63.3464 42.8169 59.7535Z" fill="#B8C4C2"/>
<path d="M40.4586 67.9517C42.225 67.1358 42.736 63.3138 42.8146 59.7535C42.3779 53.8803 42.2505 47.9883 42.4329 42.1017C42.5257 39.0131 42.3893 13.4939 43.1938 9.75763C42.6434 11.0231 42.0092 12.2504 41.2955 13.4314C39.4135 16.3722 32.034 20.5291 28.4966 36.1438C25.7409 52.249 34.2233 63.64 40.4586 67.9517Z" fill="#12924F"/>
</g>
<defs>
<clipPath id="clip0_21_263">
<rect width="86" height="86" fill="white" transform="matrix(-1 0 0 1 86 0)"/>
</clipPath>
</defs>
</svg>
