<svg width="87" height="87" viewBox="0 0 87 87" fill="none" xmlns="http://www.w3.org/2000/svg">
<g clip-path="url(#clip0_21_269)">
<path fill-rule="evenodd" clip-rule="evenodd" d="M1.25203e-06 43.4999C0.000280208 35.9937 1.94288 28.6153 5.63891 22.0821C9.33494 15.549 14.6586 10.0834 21.0923 6.21682C27.526 2.35024 34.8507 0.214255 42.3543 0.016558C49.8579 -0.181139 57.2849 1.56618 63.9133 5.08861C70.5417 8.61105 76.1458 13.7887 80.1807 20.1182C84.2156 26.4476 86.544 33.7135 86.9396 41.2093C87.3351 48.705 85.7843 56.1756 82.4379 62.8945C79.0915 69.6135 74.0634 75.3522 67.8426 79.5526L28.4606 24.4179C28.1038 23.9178 27.5974 23.544 27.0144 23.3503C26.4314 23.1566 25.802 23.153 25.2168 23.3401C24.6317 23.5272 24.1211 23.8953 23.7586 24.3913C23.3961 24.8873 23.2005 25.4855 23.2 26.0999V69.5998H29V35.1479L62.814 82.4874C56.1811 85.7742 48.8193 87.3139 41.4252 86.9608C34.0311 86.6077 26.8494 84.3735 20.5599 80.4697C14.2704 76.5659 9.08115 71.1217 5.48336 64.6523C1.88556 58.1829 -0.00177458 50.9024 1.25203e-06 43.4999ZM58 57.9998V23.1998H63.8V57.9998H58Z" fill="black"/>
</g>
<defs>
<clipPath id="clip0_21_269">
<rect width="87" height="87" fill="white"/>
</clipPath>
</defs>
</svg>
