<svg width="86" height="96" viewBox="0 0 86 96" fill="none" xmlns="http://www.w3.org/2000/svg">
<path d="M43 95.9997C41.6646 95.9997 40.4183 95.6469 39.261 95.0296L27.4202 88.0621C25.6398 87.092 26.53 86.7393 27.0641 86.5629C29.4678 85.7692 29.9129 85.5928 32.4055 84.1814C32.6729 84.005 33.029 84.0932 33.2958 84.2696L42.3768 89.6496C42.7329 89.826 43.178 89.826 43.4451 89.6496L78.9671 69.2768C79.3232 69.1004 79.5013 68.7476 79.5013 68.3067V27.6486C79.5013 27.2076 79.3232 26.8549 78.9671 26.6785L43.4451 6.39352C43.089 6.21714 42.6439 6.21714 42.3768 6.39352L6.8548 26.6788C6.49871 26.8552 6.32066 27.2961 6.32066 27.6489V68.3067C6.32066 68.6594 6.49871 69.1004 6.8548 69.2768L16.559 74.8328C21.8117 77.4785 25.1053 74.3918 25.1053 71.3052V31.1762C25.1053 30.6471 25.5507 30.1179 26.1739 30.1179H30.7144C31.2486 30.1179 31.7827 30.5589 31.7827 31.1762V71.3048C31.7827 78.2723 27.9544 82.329 21.2773 82.329C19.2297 82.329 17.6273 82.329 13.0871 80.1243L3.73898 74.8328C1.42438 73.5096 0 71.0403 0 68.3945V27.7371C0 25.0914 1.42438 22.622 3.73898 21.2988L39.261 0.926006C41.4866 -0.308669 44.5134 -0.308669 46.739 0.926006L82.261 21.2988C84.5756 22.6217 86 25.091 86 27.7371V68.3949C86 71.0406 84.5756 73.5099 82.261 74.8328L46.739 95.2063C45.5817 95.7354 44.2463 96 43 96V95.9997ZM53.9502 68.0418C38.3704 68.0418 35.1656 60.9865 35.1656 54.9891C35.1656 54.46 35.6107 53.9308 36.2339 53.9308H40.8631C41.3972 53.9308 41.8427 54.2836 41.8427 54.8128C42.5549 59.4869 44.6024 61.7802 54.0392 61.7802C61.5175 61.7802 64.7227 60.1046 64.7227 56.136C64.7227 53.8427 63.8325 52.167 52.1698 51.0202C42.4659 50.0501 36.4119 47.9335 36.4119 40.2609C36.4119 33.1168 42.4655 28.8836 52.6149 28.8836C64.0102 28.8836 69.619 32.764 70.3312 41.2307C70.3312 41.4952 70.2422 41.7598 70.0641 42.0244C69.8861 42.2008 69.619 42.3771 69.3519 42.3771H64.7227C64.2773 42.3771 63.8325 42.0244 63.7431 41.5834C62.6748 36.7329 59.9151 35.1455 52.6149 35.1455C44.4247 35.1455 43.4451 37.9676 43.4451 40.0842C43.4451 42.6421 44.6024 43.4354 55.6417 44.8465C66.5922 46.2576 71.7556 48.2863 71.7556 55.8711C71.6666 63.6322 65.2569 68.0418 53.9502 68.0418Z" fill="#539E43"/>
</svg>
