<svg width="86" height="86" viewBox="0 0 86 86" fill="none" xmlns="http://www.w3.org/2000/svg">
<path d="M42.6909 5.64376C23.6097 5.64376 24.8164 13.8944 24.8164 13.8944V22.4675H42.9624V25.155H17.5897C17.5897 25.155 5.375 23.65 5.375 43.0134C5.375 62.3769 16.1599 61.5895 16.1599 61.5895H22.3869V52.5568C22.3869 52.5568 22.0375 41.7718 32.8681 41.7718H51.041C51.041 41.7718 61.1782 41.9331 61.1782 31.9571V15.5875C61.1782 15.5875 62.7155 5.61151 42.7904 5.61151L42.6909 5.64376ZM32.6612 11.3869C33.3063 11.3707 33.9417 11.5461 34.4872 11.8909C35.0326 12.2358 35.4635 12.7347 35.7254 13.3245C35.9872 13.9143 36.0683 14.5685 35.9584 15.2044C35.8485 15.8402 35.5524 16.4292 35.1077 16.8969C34.663 17.3645 34.0897 17.6897 33.4601 17.8315C32.8306 17.9732 32.1731 17.9251 31.5709 17.6932C30.9687 17.4612 30.4488 17.056 30.077 16.5285C29.7051 16.0011 29.498 15.3753 29.4819 14.7302V14.6764C29.4819 13.8111 29.8256 12.9813 30.4375 12.3694C31.0493 11.7576 31.8792 11.4138 32.7445 11.4138L32.6612 11.3869Z" fill="url(#paint0_linear_21_315)"/>
<path d="M43.2284 80.3831C62.3097 80.3831 61.103 72.1056 61.103 72.1056V63.5594H42.9597V60.8719H68.4103C68.4103 60.8719 80.625 62.2371 80.625 42.9865C80.625 23.736 69.8401 24.4105 69.8401 24.4105H63.5325V33.325C63.5325 33.325 63.8819 44.1099 53.0512 44.1099H34.8703C34.8703 44.1099 24.725 43.9567 24.725 53.9327V70.4125C24.725 70.4125 23.1877 80.3885 43.1129 80.3885H43.2204L43.2284 80.3831ZM53.2582 74.613C52.6131 74.6293 51.9776 74.4539 51.4322 74.109C50.8868 73.7642 50.4559 73.2653 50.194 72.6755C49.9321 72.0857 49.851 71.4315 49.961 70.7956C50.0709 70.1598 50.3669 69.5708 50.8116 69.1031C51.2563 68.6355 51.8297 68.3103 52.4593 68.1685C53.0888 68.0268 53.7463 68.0749 54.3485 68.3068C54.9507 68.5387 55.4706 68.944 55.8424 69.4714C56.2143 69.9989 56.4213 70.6247 56.4375 71.2698V71.3504C56.4375 72.2157 56.0938 73.0456 55.4819 73.6574C54.87 74.2693 54.0402 74.613 53.1749 74.613H53.2582Z" fill="url(#paint1_linear_21_315)"/>
<defs>
<linearGradient id="paint0_linear_21_315" x1="12.8117" y1="12.9616" x2="48.5197" y2="48.5886" gradientUnits="userSpaceOnUse">
<stop stop-color="#387EB8"/>
<stop offset="1" stop-color="#366994"/>
</linearGradient>
<linearGradient id="paint1_linear_21_315" x1="33.9364" y1="36.1699" x2="74.7332" y2="71.7862" gradientUnits="userSpaceOnUse">
<stop stop-color="#FFE052"/>
<stop offset="1" stop-color="#FFC331"/>
</linearGradient>
</defs>
</svg>
