<svg width="96" height="96" viewBox="0 0 96 96" fill="none" xmlns="http://www.w3.org/2000/svg">
<path d="M86.064 6H9.936C7.76221 6 6 7.76221 6 9.936V86.064C6 88.2378 7.76221 90 9.936 90H86.064C88.2378 90 90 88.2378 90 86.064V9.936C90 7.76221 88.2378 6 86.064 6Z" fill="#3178C6"/>
<path fill-rule="evenodd" clip-rule="evenodd" d="M54.735 71.277V80.481C56.4073 81.3064 58.1895 81.8873 60.027 82.206C62.1504 82.598 64.3057 82.7908 66.465 82.782C68.5695 82.792 70.6691 82.5798 72.729 82.149C74.5784 81.7753 76.343 81.0633 77.934 80.049C79.411 79.0956 80.6284 77.7906 81.477 76.251C82.9968 73.063 83.1974 69.404 82.035 66.069C81.5445 64.8219 80.8136 63.6833 79.884 62.718C78.8861 61.6916 77.7526 60.8064 76.515 60.087C75.0901 59.2525 73.6096 58.5167 72.084 57.885C70.884 57.387 69.804 56.903 68.844 56.433C67.9913 56.0247 67.1753 55.544 66.405 54.996C65.8017 54.573 65.2776 54.047 64.857 53.442C64.4936 52.8927 64.3043 52.2465 64.314 51.588C64.306 50.9819 64.4749 50.3866 64.8 49.875C65.1531 49.3396 65.6241 48.8921 66.177 48.567C66.8528 48.1691 67.5882 47.8824 68.355 47.718C69.2964 47.5089 70.2587 47.4082 71.223 47.418C72.034 47.4208 72.8439 47.4789 73.647 47.592C74.5143 47.7092 75.3723 47.8867 76.215 48.123C77.0721 48.3606 77.9104 48.6614 78.723 49.023C79.5115 49.3745 80.2657 49.7983 80.976 50.289V41.7C79.4973 41.1406 77.9639 40.7383 76.401 40.5C74.5137 40.2254 72.6081 40.096 70.701 40.113C68.6163 40.1018 66.5378 40.3384 64.509 40.818C62.6752 41.237 60.9316 41.9818 59.361 43.017C57.902 43.9889 56.6974 45.2964 55.848 46.83C54.9479 48.533 54.5025 50.4395 54.555 52.365C54.4885 54.9113 55.3272 57.3988 56.922 59.385C58.8786 61.5872 61.3457 63.2756 64.107 64.302C65.367 64.822 66.542 65.331 67.632 65.829C68.6154 66.2666 69.5607 66.7854 70.458 67.38C71.1817 67.8508 71.8173 68.4448 72.336 69.135C72.792 69.761 73.034 70.5175 73.026 71.292C73.0301 71.8724 72.8811 72.4436 72.594 72.948C72.275 73.49 71.8266 73.9446 71.289 74.271C70.6163 74.6811 69.8803 74.9771 69.111 75.147C68.1088 75.3711 67.0838 75.4768 66.057 75.462C64.0419 75.4583 62.0429 75.103 60.15 74.412C58.1724 73.6984 56.3385 72.6366 54.735 71.277ZM39.273 48.363H51.273V40.782H17.814V48.363H29.76V82.125H39.273V48.363Z" fill="white"/>
</svg>
