<svg width="82" height="76" viewBox="0 0 82 76" fill="none" xmlns="http://www.w3.org/2000/svg">
<g clip-path="url(#clip0_21_257)">
<path d="M27.3441 13.8649C27.3441 13.8649 24.3053 15.5996 24.3053 19.0633V36.3755C24.3053 36.3755 24.3053 39.8446 21.2665 38.1102C18.2277 36.3758 18.2277 32.9121 18.2277 32.9121V15.5999C18.2277 15.3837 18.2386 15.1731 18.2604 14.9676C18.5938 11.9203 21.2611 10.3965 21.2611 10.3965L15.1892 6.93247C15.1892 6.93247 15.1838 6.93247 15.1783 6.93785C14.998 7.04045 12.1504 8.77515 12.1504 12.1305V29.4427C12.1504 29.4427 12.1504 32.9118 9.11129 31.1774C6.07248 29.443 6.07248 25.9793 6.07248 25.9793V8.66717C6.07248 5.20347 9.11129 3.46908 9.11129 3.46908L3.0388 0C3.0388 0 0 1.73438 0 5.19808V22.5102C0 22.5102 0 32.9118 9.11097 38.1099C11.9041 39.704 13.8388 39.8281 15.1835 39.2391C16.5278 41.3627 18.4628 43.4486 21.2556 45.0423C30.3666 50.2404 30.3666 39.8443 30.3666 39.8443V22.5321C30.3666 19.063 33.4057 17.334 33.4057 17.334C32.4714 16.1725 31.6408 15.3833 30.9137 14.9672C30.2939 14.6126 29.1039 14.2449 27.3441 13.8649Z" fill="#808285"/>
<path d="M60.7444 43.3241C60.7444 33.0578 69.8554 38.126 69.8554 38.126L82 45.0585V51.9913L69.8554 45.0585C69.8554 45.0585 69.8169 45.0366 69.7493 45.0027L69.7093 44.9834C69.1026 44.6902 66.8169 43.7852 66.8169 46.7986C66.8169 50.2619 69.8554 51.9966 69.8554 51.9966L75.9278 55.46C75.9278 55.46 82 58.9291 82 69.3253C82 79.7214 72.889 74.523 72.889 74.523L60.7444 67.5906V60.6581L72.8945 67.5906C72.8945 67.5906 75.9333 69.3253 75.9333 65.8562C75.9333 62.3925 72.8945 60.6581 72.8945 60.6581L69.8554 58.9237C69.6741 58.8164 60.7444 53.4878 60.7444 43.3241ZM51.6334 27.7305C53.4493 27.9366 54.6802 28.2245 55.3266 28.5937C56.0297 28.9952 56.8225 29.8639 57.7056 31.1992C57.7056 31.1992 54.6668 32.9339 54.6668 36.3973L54.6665 53.737C54.6584 54.3197 54.3932 63.9498 45.5555 58.9079C36.7181 53.8656 36.4525 43.9277 36.4448 43.3358L36.4445 43.3083L42.5167 46.7773V46.7887C42.5199 47.0088 42.6192 50.2993 45.5555 51.9751C48.5014 53.6566 48.5917 50.4481 48.5943 50.2502V32.9286C48.5943 29.4649 51.6334 27.7305 51.6334 27.7305ZM36.4554 29.5025L42.5276 32.9662V39.8987L36.4554 36.4353V29.5025Z" fill="#BCBEC0"/>
<path d="M69.8554 13.865C67.0571 12.2658 64.5484 11.4874 62.4113 11.1742C61.8539 9.96932 60.4875 8.5535 57.711 6.98663C48.5997 1.8427 39.4942 6.9328 39.4942 6.9328L27.3441 13.8646L33.4166 17.3283L45.5609 10.3959C45.5609 10.3959 48.5997 8.66117 51.6334 10.3959C54.6722 12.1303 51.6334 13.8646 51.6334 13.8646L39.4888 20.7971L45.5609 24.2608L57.7165 17.3226C57.8968 17.2204 60.8373 15.6478 63.7777 17.3283C66.8165 19.0627 63.7777 20.7917 63.7777 20.7917L51.6334 27.7245L57.7056 31.1933L72.889 22.5261C72.889 22.5261 78.9612 19.0627 69.8557 13.8646L69.8554 13.865Z" fill="#F16822"/>
</g>
<defs>
<clipPath id="clip0_21_257">
<rect width="82" height="76" fill="white"/>
</clipPath>
</defs>
</svg>
